<mxfile host="app.diagrams.net" modified="2023-10-08T18:35:55.293Z" agent="Mozilla/5.0 (Windows NT 10.0; Win64; x64) AppleWebKit/537.36 (KHTML, like Gecko) Chrome/117.0.0.0 Safari/537.36" etag="zjV2R2P6v1NC6e_C5nZG" version="22.0.4" type="google">
  <diagram name="Page-1" id="YBZfX-k10hx6dY7Kec_U">
    <mxGraphModel dx="1050" dy="534" grid="1" gridSize="10" guides="1" tooltips="1" connect="1" arrows="1" fold="1" page="1" pageScale="1" pageWidth="827" pageHeight="1169" math="0" shadow="0">
      <root>
        <mxCell id="0" />
        <mxCell id="1" parent="0" />
        <mxCell id="R0_0495s1VI4CMFth86i-9" style="edgeStyle=orthogonalEdgeStyle;rounded=0;orthogonalLoop=1;jettySize=auto;html=1;" edge="1" parent="1" source="R0_0495s1VI4CMFth86i-1" target="R0_0495s1VI4CMFth86i-2">
          <mxGeometry relative="1" as="geometry" />
        </mxCell>
        <mxCell id="R0_0495s1VI4CMFth86i-1" value="Domain&lt;br&gt;{https:/www.chargeup.io/}" style="rounded=1;whiteSpace=wrap;html=1;fillColor=#dae8fc;strokeColor=#6c8ebf;" vertex="1" parent="1">
          <mxGeometry x="60" y="320" width="180" height="80" as="geometry" />
        </mxCell>
        <mxCell id="R0_0495s1VI4CMFth86i-10" style="edgeStyle=orthogonalEdgeStyle;rounded=0;orthogonalLoop=1;jettySize=auto;html=1;entryX=0;entryY=0.5;entryDx=0;entryDy=0;" edge="1" parent="1" source="R0_0495s1VI4CMFth86i-2" target="R0_0495s1VI4CMFth86i-3">
          <mxGeometry relative="1" as="geometry" />
        </mxCell>
        <mxCell id="R0_0495s1VI4CMFth86i-14" style="edgeStyle=orthogonalEdgeStyle;rounded=0;orthogonalLoop=1;jettySize=auto;html=1;entryX=0;entryY=0.5;entryDx=0;entryDy=0;" edge="1" parent="1" source="R0_0495s1VI4CMFth86i-2" target="R0_0495s1VI4CMFth86i-7">
          <mxGeometry relative="1" as="geometry" />
        </mxCell>
        <mxCell id="R0_0495s1VI4CMFth86i-2" value="Path&lt;br&gt;{group07/}" style="rounded=1;whiteSpace=wrap;html=1;fillColor=#dae8fc;strokeColor=#6c8ebf;" vertex="1" parent="1">
          <mxGeometry x="300" y="330" width="120" height="60" as="geometry" />
        </mxCell>
        <mxCell id="R0_0495s1VI4CMFth86i-12" style="edgeStyle=orthogonalEdgeStyle;rounded=0;orthogonalLoop=1;jettySize=auto;html=1;" edge="1" parent="1" source="R0_0495s1VI4CMFth86i-3" target="R0_0495s1VI4CMFth86i-5">
          <mxGeometry relative="1" as="geometry">
            <Array as="points">
              <mxPoint x="480" y="200" />
            </Array>
          </mxGeometry>
        </mxCell>
        <mxCell id="R0_0495s1VI4CMFth86i-13" style="edgeStyle=orthogonalEdgeStyle;rounded=0;orthogonalLoop=1;jettySize=auto;html=1;" edge="1" parent="1" source="R0_0495s1VI4CMFth86i-3" target="R0_0495s1VI4CMFth86i-6">
          <mxGeometry relative="1" as="geometry">
            <Array as="points">
              <mxPoint x="474" y="320" />
            </Array>
          </mxGeometry>
        </mxCell>
        <mxCell id="R0_0495s1VI4CMFth86i-3" value="Ontology&lt;br&gt;{ontology/}" style="rounded=1;whiteSpace=wrap;html=1;fillColor=#dae8fc;strokeColor=#6c8ebf;" vertex="1" parent="1">
          <mxGeometry x="414" y="240" width="120" height="60" as="geometry" />
        </mxCell>
        <mxCell id="R0_0495s1VI4CMFth86i-5" value="Class&lt;br&gt;{[ontologyName]#[className]}" style="rounded=1;whiteSpace=wrap;html=1;fillColor=#dae8fc;strokeColor=#6c8ebf;" vertex="1" parent="1">
          <mxGeometry x="560" y="170" width="220" height="60" as="geometry" />
        </mxCell>
        <mxCell id="R0_0495s1VI4CMFth86i-6" value="Property&lt;br&gt;{[ontologyName]#[propertyName]}" style="rounded=1;whiteSpace=wrap;html=1;fillColor=#dae8fc;strokeColor=#6c8ebf;" vertex="1" parent="1">
          <mxGeometry x="560" y="290" width="220" height="60" as="geometry" />
        </mxCell>
        <mxCell id="R0_0495s1VI4CMFth86i-15" style="edgeStyle=orthogonalEdgeStyle;rounded=0;orthogonalLoop=1;jettySize=auto;html=1;entryX=0;entryY=0.5;entryDx=0;entryDy=0;" edge="1" parent="1" source="R0_0495s1VI4CMFth86i-7" target="R0_0495s1VI4CMFth86i-8">
          <mxGeometry relative="1" as="geometry" />
        </mxCell>
        <mxCell id="R0_0495s1VI4CMFth86i-7" value="Data&lt;br&gt;{resource/}" style="rounded=1;whiteSpace=wrap;html=1;fillColor=#dae8fc;strokeColor=#6c8ebf;" vertex="1" parent="1">
          <mxGeometry x="414" y="420" width="120" height="60" as="geometry" />
        </mxCell>
        <mxCell id="R0_0495s1VI4CMFth86i-8" value="Individual&lt;br&gt;{[className]/[identifier]}" style="rounded=1;whiteSpace=wrap;html=1;fillColor=#dae8fc;strokeColor=#6c8ebf;" vertex="1" parent="1">
          <mxGeometry x="620" y="420" width="150" height="60" as="geometry" />
        </mxCell>
      </root>
    </mxGraphModel>
  </diagram>
</mxfile>
